<svg xmlns="http://www.w3.org/2000/svg" width="299" height="73" viewBox="0 0 299 73">
    <defs>
        <style>
            .cls-1,.cls-5,.cls-7{fill:#fff}.cls-1{opacity:.051}.cls-2{fill:#00a372}.cls-3{fill:#6fc393}.cls-4{fill:#ffdd15}.cls-6{fill:#e4e7e7}.cls-7{font-size:14px;font-family:Roboto-Regular,Roboto;letter-spacing:.01em;opacity:.5}
        </style>
    </defs>
    <g id="Group_592" data-name="Group 592" transform="translate(-690 -2013)">
        <rect id="Rectangle_2673" width="299" height="73" class="cls-1" data-name="Rectangle 2673" rx="4" transform="translate(690 2013)"/>
        <g id="DCL_logo" transform="translate(812 2026.836)">
            <g id="Layer_1" data-name="Layer 1">
                <path id="Path_677" d="M0 0l3.665 41.014 16.469 4.65 16.47-4.65L40.269 0z" class="cls-2" data-name="Path 677"/>
                <path id="Path_678" d="M220.21 73.93l13.384-3.786 3.1-35.194H220.21z" class="cls-3" data-name="Path 678" transform="translate(-200.033 -31.748)"/>
                <path id="Path_679" d="M220.21 403.77h.017l-.017-.005z" class="cls-4" data-name="Path 679" transform="translate(-200.033 -366.765)"/>
                <path id="Path_680" d="M220.21 345.25l.017-.005h-.017z" class="cls-4" data-name="Path 680" transform="translate(-200.033 -313.607)"/>
                <path id="Path_681" d="M232.992 92.35l-.936 10.542h-5.176l.477-5.384h-7.437V92.35z" class="cls-5" data-name="Path 681" transform="translate(-199.77 -83.888)"/>
                <path id="Path_682" d="M226.009 285.41h5.178l-.7 7.857-10.5 2.987v-5.361l5.676-1.615z" class="cls-5" data-name="Path 682" transform="translate(-199.833 -259.259)"/>
                <path id="Path_683" d="M92.92 92.35v5.158h-7.174l1.472 16.4 5.693 1.619h.017v5.353h-.017L82.4 117.9l-2.29-25.55z" class="cls-6" data-name="Path 683" transform="translate(-72.77 -83.888)"/>
                <path id="Path_684" d="M525.29 101.23h3.468a5.112 5.112 0 0 1 3.734 1.3 5.722 5.722 0 0 1 0 7.321 5.1 5.1 0 0 1-3.734 1.3h-3.468zm3.385 8.721q3.665 0 3.665-3.776 0-3.747-3.665-3.748h-1.945v7.523z" class="cls-5" data-name="Path 684" transform="translate(-477.16 -91.955)"/>
                <path id="Path_685" d="M639.78 111.149v-9.919h1.435v9.919z" class="cls-5" data-name="Path 685" transform="translate(-581.159 -91.955)"/>
                <path id="Path_686" d="M676.719 109.827a4.587 4.587 0 0 1-1.649-.916l.516-1.058a4.9 4.9 0 0 0 1.5.842 5.431 5.431 0 0 0 1.756.265 3.047 3.047 0 0 0 1.727-.418 1.35 1.35 0 0 0 .613-1.185 1.051 1.051 0 0 0-.571-.968 6.941 6.941 0 0 0-1.811-.607 10.223 10.223 0 0 1-1.937-.57 2.971 2.971 0 0 1-1.184-.878 2.221 2.221 0 0 1-.432-1.414 2.612 2.612 0 0 1 .458-1.526 3.024 3.024 0 0 1 1.3-1.039 4.812 4.812 0 0 1 1.943-.367 5.87 5.87 0 0 1 1.957.321 4.172 4.172 0 0 1 1.526.905l-.515 1.065a4.867 4.867 0 0 0-1.407-.843 4.363 4.363 0 0 0-1.547-.275 2.759 2.759 0 0 0-1.685.458 1.449 1.449 0 0 0-.613 1.232 1.137 1.137 0 0 0 .536 1.017 5.757 5.757 0 0 0 1.721.627 13.572 13.572 0 0 1 2.006.585 3.115 3.115 0 0 1 1.226.836 2.01 2.01 0 0 1 .458 1.365 2.509 2.509 0 0 1-.458 1.5 2.956 2.956 0 0 1-1.317 1 5.237 5.237 0 0 1-2.016.356 6.873 6.873 0 0 1-2.101-.31z" class="cls-5" data-name="Path 686" transform="translate(-613.216 -90.827)"/>
                <path id="Path_687" d="M767.357 111.149v-8.722H764v-1.2h8.164v1.2h-3.357v8.722z" class="cls-5" data-name="Path 687" transform="translate(-693.997 -91.955)"/>
                <path id="Path_688" d="M875.495 111.149h-1.518l-1.241-3.3a1.3 1.3 0 0 0-.571-.733 2.16 2.16 0 0 0-1.031-.2h-2.173v4.236h-1.421v-9.922h4.082a3.815 3.815 0 0 1 2.5.724 2.55 2.55 0 0 1 .871 2.076 2.667 2.667 0 0 1-.516 1.658 2.742 2.742 0 0 1-1.466.961 1.669 1.669 0 0 1 1.254 1.226zm-4.04-5.392a2.557 2.557 0 0 0 1.615-.424 1.536 1.536 0 0 0 .53-1.275 1.506 1.506 0 0 0-.522-1.261 2.608 2.608 0 0 0-1.623-.41h-2.494v3.371z" class="cls-5" data-name="Path 688" transform="translate(-788.05 -91.955)"/>
                <path id="Path_689" d="M973.52 111.149v-9.919h1.435v9.919z" class="cls-5" data-name="Path 689" transform="translate(-884.32 -91.955)"/>
                <path id="Path_690" d="M1021.585 106.9a2.491 2.491 0 0 1 .474 1.547 2.409 2.409 0 0 1-.884 1.992 3.865 3.865 0 0 1-2.474.711h-4.291v-9.92h4.151a3.739 3.739 0 0 1 2.389.683 2.306 2.306 0 0 1 .857 1.909 2.246 2.246 0 0 1-1.558 2.215 2.413 2.413 0 0 1 1.336.863zm-5.753-1.365h2.507q2.077 0 2.076-1.6 0-1.548-2.076-1.547h-2.507zm4.318 4.061a1.474 1.474 0 0 0 .5-1.232 1.522 1.522 0 0 0-.509-1.261 2.51 2.51 0 0 0-1.581-.411h-2.73v3.3h2.73a2.542 2.542 0 0 0 1.59-.392z" class="cls-5" data-name="Path 690" transform="translate(-921.463 -91.955)"/>
                <path id="Path_691" d="M1118.984 110.23a4.119 4.119 0 0 1-1.024-3.024v-5.976h1.407v6.07a2.935 2.935 0 0 0 .661 2.083 2.565 2.565 0 0 0 1.957.7 2.526 2.526 0 0 0 1.943-.71 2.949 2.949 0 0 0 .662-2.076v-6.067h1.421v5.977a4.118 4.118 0 0 1-1.024 3.024 4.889 4.889 0 0 1-6 0z" class="cls-5" data-name="Path 691" transform="translate(-1015.525 -91.955)"/>
                <path id="Path_692" d="M1222.887 111.149v-8.722h-3.357v-1.2h8.164v1.2h-3.356v8.722z" class="cls-5" data-name="Path 692" transform="translate(-1107.789 -91.955)"/>
                <path id="Path_693" d="M1323.07 111.149v-9.919h6.437v1.17h-5.016v3.121h4.737v1.17h-4.737v3.288h5.016v1.171z" class="cls-5" data-name="Path 693" transform="translate(-1201.842 -91.955)"/>
                <path id="Path_694" d="M1412.93 101.23h3.469a5.114 5.114 0 0 1 3.734 1.3 5.722 5.722 0 0 1 0 7.321 5.1 5.1 0 0 1-3.734 1.3h-3.469zm3.39 8.721q3.665 0 3.665-3.776 0-3.747-3.665-3.748h-1.951v7.523z" class="cls-5" data-name="Path 694" transform="translate(-1283.468 -91.955)"/>
                <path id="Path_695" d="M523.688 291.99a4.114 4.114 0 0 1-1.636-1.763 5.968 5.968 0 0 1-.572-2.7 5.887 5.887 0 0 1 .572-2.689 4.075 4.075 0 0 1 1.636-1.756 4.933 4.933 0 0 1 2.5-.613 5.538 5.538 0 0 1 1.888.313 3.94 3.94 0 0 1 1.466.916l-.5 1.056a5 5 0 0 0-1.374-.829 4.1 4.1 0 0 0-1.466-.257 2.95 2.95 0 0 0-2.39 1 4.314 4.314 0 0 0-.843 2.856 4.371 4.371 0 0 0 .843 2.876 2.934 2.934 0 0 0 2.39 1.008 4.081 4.081 0 0 0 1.466-.258 4.977 4.977 0 0 0 1.374-.825l.5 1.058a3.927 3.927 0 0 1-1.466.916 5.538 5.538 0 0 1-1.888.313 4.918 4.918 0 0 1-2.5-.622z" class="cls-5" data-name="Path 695" transform="translate(-473.699 -256.586)"/>
                <path id="Path_696" d="M626 291.993a4.122 4.122 0 0 1-1.6-1.763 6 6 0 0 1-.564-2.688 6.163 6.163 0 0 1 .557-2.7 4.032 4.032 0 0 1 1.6-1.756 5.223 5.223 0 0 1 4.91 0 4.032 4.032 0 0 1 1.6 1.756 6.062 6.062 0 0 1 .558 2.689 6.144 6.144 0 0 1-.558 2.7 4.064 4.064 0 0 1-1.6 1.763 5.15 5.15 0 0 1-4.9 0zm4.765-1.568a4.494 4.494 0 0 0 .825-2.9 4.409 4.409 0 0 0-.825-2.877 3.166 3.166 0 0 0-4.633 0 4.436 4.436 0 0 0-.825 2.877 4.522 4.522 0 0 0 .825 2.9 2.8 2.8 0 0 0 2.306 1.017 2.864 2.864 0 0 0 2.327-1.017z" class="cls-5" data-name="Path 696" transform="translate(-566.68 -256.588)"/>
                <path id="Path_697" d="M754.541 283.69h1.159v9.924h-1.3V286.8l-2.939 6.817h-.99l-2.981-6.771.014 6.771h-1.3v-9.927h1.156l3.608 8.191z" class="cls-5" data-name="Path 697" transform="translate(-677.837 -257.697)"/>
                <path id="Path_698" d="M875.14 283.69h4.123a3.583 3.583 0 0 1 2.431.76 2.875 2.875 0 0 1-.014 4.137 3.589 3.589 0 0 1-2.417.76h-2.687v4.268h-1.436zm3.957 4.518a2.393 2.393 0 0 0 1.553-.432 1.534 1.534 0 0 0 .522-1.254 1.518 1.518 0 0 0-.522-1.24 2.385 2.385 0 0 0-1.553-.432h-2.522v3.357z" class="cls-5" data-name="Path 698" transform="translate(-794.954 -257.697)"/>
                <path id="Path_699" d="M975.6 292.69a4.114 4.114 0 0 1-1.024-3.024v-5.976h1.407v6.076a2.934 2.934 0 0 0 .662 2.083 2.566 2.566 0 0 0 1.958.7 2.523 2.523 0 0 0 1.942-.71 2.967 2.967 0 0 0 .666-2.076v-6.073h1.421v5.977a4.116 4.116 0 0 1-1.024 3.024 4.891 4.891 0 0 1-6.008 0z" class="cls-5" data-name="Path 699" transform="translate(-885.283 -257.697)"/>
                <path id="Path_700" d="M1079.507 293.614v-8.727h-3.357v-1.2h8.164v1.2h-3.357v8.727z" class="cls-5" data-name="Path 700" transform="translate(-977.546 -257.697)"/>
                <path id="Path_701" d="M1179.69 293.614v-9.924h6.437v1.17h-5.016v3.121h4.737v1.17h-4.737v3.288h5.016v1.176z" class="cls-5" data-name="Path 701" transform="translate(-1071.599 -257.697)"/>
                <path id="Path_702" d="M1310.15 293.614v-9.924h1.435v8.721h4.82v1.2z" class="cls-5" data-name="Path 702" transform="translate(-1190.106 -257.697)"/>
                <path id="Path_703" d="M1390.019 293.659l-1.059-2.452h-5.013l-1.061 2.452h-1.466l4.415-9.919h1.212l4.434 9.919zm-5.589-3.595h4.04l-2.02-4.723z" class="cls-5" data-name="Path 703" transform="translate(-1254.846 -257.742)"/>
                <path id="Path_704" d="M1512.386 289.36a2.5 2.5 0 0 1 .474 1.547 2.408 2.408 0 0 1-.885 1.992 3.867 3.867 0 0 1-2.474.711h-4.291v-9.92h4.152a3.742 3.742 0 0 1 2.39.683 2.317 2.317 0 0 1 .861 1.911 2.246 2.246 0 0 1-1.558 2.215 2.413 2.413 0 0 1 1.331.861zm-5.754-1.365h2.508q2.076 0 2.075-1.6 0-1.548-2.075-1.547h-2.508zm4.319 4.062a1.473 1.473 0 0 0 .5-1.232 1.522 1.522 0 0 0-.509-1.261 2.511 2.511 0 0 0-1.581-.411h-2.73v3.3h2.73a2.549 2.549 0 0 0 1.59-.397z" class="cls-5" data-name="Path 704" transform="translate(-1367.293 -257.697)"/>
                <path id="Path_705" d="M1605.419 292.323a4.586 4.586 0 0 1-1.649-.916l.516-1.058a4.889 4.889 0 0 0 1.5.849 5.429 5.429 0 0 0 1.755.265 3.049 3.049 0 0 0 1.728-.418 1.349 1.349 0 0 0 .613-1.184 1.051 1.051 0 0 0-.572-.969 6.927 6.927 0 0 0-1.811-.607 10.219 10.219 0 0 1-1.937-.578 2.978 2.978 0 0 1-1.184-.877 2.223 2.223 0 0 1-.432-1.415 2.612 2.612 0 0 1 .458-1.526 3.022 3.022 0 0 1 1.306-1.034 4.811 4.811 0 0 1 1.943-.367 5.868 5.868 0 0 1 1.957.321 4.184 4.184 0 0 1 1.526.905l-.515 1.059a4.864 4.864 0 0 0-1.407-.843 4.362 4.362 0 0 0-1.547-.275 2.784 2.784 0 0 0-1.686.454 1.451 1.451 0 0 0-.613 1.232 1.137 1.137 0 0 0 .537 1.017 5.69 5.69 0 0 0 1.721.627 13.581 13.581 0 0 1 2.006.586 3.128 3.128 0 0 1 1.226.836 2.015 2.015 0 0 1 .458 1.365 2.508 2.508 0 0 1-.458 1.5 2.965 2.965 0 0 1-1.317 1 5.248 5.248 0 0 1-2.016.355 6.872 6.872 0 0 1-2.106-.304z" class="cls-5" data-name="Path 705" transform="translate(-1456.822 -256.605)"/>
            </g>
        </g>
        <text id="Separated_they_live" class="cls-7" data-name="Separated they live" transform="translate(712 2055)">
            <tspan x="0" y="0">Powered by</tspan>
        </text>
    </g>
</svg>
